<mxfile host="app.diagrams.net" agent="Mozilla/5.0 (Windows NT 10.0; Win64; x64) AppleWebKit/537.36 (KHTML, like Gecko) Chrome/130.0.0.0 Safari/537.36" version="24.8.4">
  <diagram name="Page-1" id="UJWXzUGF7BPBQ5PaJ_mi">
    <mxGraphModel dx="2745" dy="1452" grid="1" gridSize="10" guides="1" tooltips="1" connect="1" arrows="1" fold="1" page="1" pageScale="1" pageWidth="850" pageHeight="1100" math="0" shadow="0">
      <root>
        <mxCell id="0" />
        <mxCell id="1" parent="0" />
        <mxCell id="5Z3_2alg70xuiNiv1gRH-1" value="w" style="endArrow=none;dashed=1;html=1;rounded=0;entryX=1.001;entryY=0.598;entryDx=0;entryDy=0;entryPerimeter=0;" edge="1" parent="1" target="5Z3_2alg70xuiNiv1gRH-2">
          <mxGeometry width="50" height="50" relative="1" as="geometry">
            <mxPoint x="670" y="690" as="sourcePoint" />
            <mxPoint x="1540" y="690" as="targetPoint" />
          </mxGeometry>
        </mxCell>
        <mxCell id="5Z3_2alg70xuiNiv1gRH-2" value="&lt;b&gt;Alternativo&lt;/b&gt;" style="shape=umlFrame;whiteSpace=wrap;html=1;pointerEvents=0;width=80;height=20;" vertex="1" parent="1">
          <mxGeometry x="670" y="570" width="880" height="200" as="geometry" />
        </mxCell>
        <mxCell id="5Z3_2alg70xuiNiv1gRH-3" value="" style="shape=umlLifeline;perimeter=lifelinePerimeter;whiteSpace=wrap;html=1;container=1;dropTarget=0;collapsible=0;recursiveResize=0;outlineConnect=0;portConstraint=eastwest;newEdgeStyle={&quot;curved&quot;:0,&quot;rounded&quot;:0};participant=umlActor;" vertex="1" parent="1">
          <mxGeometry x="930" y="90" width="20" height="960" as="geometry" />
        </mxCell>
        <mxCell id="5Z3_2alg70xuiNiv1gRH-4" value="" style="html=1;points=[[0,0,0,0,5],[0,1,0,0,-5],[1,0,0,0,5],[1,1,0,0,-5]];perimeter=orthogonalPerimeter;outlineConnect=0;targetShapes=umlLifeline;portConstraint=eastwest;newEdgeStyle={&quot;curved&quot;:0,&quot;rounded&quot;:0};" vertex="1" parent="5Z3_2alg70xuiNiv1gRH-3">
          <mxGeometry x="5" y="80" width="10" height="120" as="geometry" />
        </mxCell>
        <mxCell id="5Z3_2alg70xuiNiv1gRH-5" value="1. Acede e escreve no campo de pesquisa" style="html=1;verticalAlign=bottom;endArrow=block;curved=0;rounded=0;" edge="1" parent="1" target="5Z3_2alg70xuiNiv1gRH-9">
          <mxGeometry relative="1" as="geometry">
            <mxPoint x="945" y="170" as="sourcePoint" />
            <mxPoint x="1195" y="170" as="targetPoint" />
            <mxPoint as="offset" />
          </mxGeometry>
        </mxCell>
        <mxCell id="5Z3_2alg70xuiNiv1gRH-6" value="2. Não realiza pesquisa" style="html=1;verticalAlign=bottom;endArrow=open;dashed=1;endSize=8;curved=0;rounded=0;" edge="1" parent="1" source="5Z3_2alg70xuiNiv1gRH-9">
          <mxGeometry relative="1" as="geometry">
            <mxPoint x="945" y="290" as="targetPoint" />
            <mxPoint x="1195" y="290" as="sourcePoint" />
            <mxPoint as="offset" />
          </mxGeometry>
        </mxCell>
        <mxCell id="5Z3_2alg70xuiNiv1gRH-7" value="Página de Catálogo" style="shape=umlLifeline;perimeter=lifelinePerimeter;whiteSpace=wrap;html=1;container=1;dropTarget=0;collapsible=0;recursiveResize=0;outlineConnect=0;portConstraint=eastwest;newEdgeStyle={&quot;curved&quot;:0,&quot;rounded&quot;:0};" vertex="1" parent="1">
          <mxGeometry x="1150" y="90" width="110" height="960" as="geometry" />
        </mxCell>
        <mxCell id="5Z3_2alg70xuiNiv1gRH-8" value="3. Prepara query para pesquisar em Addresses" style="html=1;align=left;spacingLeft=2;endArrow=block;rounded=0;edgeStyle=orthogonalEdgeStyle;curved=0;rounded=0;" edge="1" parent="5Z3_2alg70xuiNiv1gRH-7">
          <mxGeometry x="-1" y="115" relative="1" as="geometry">
            <mxPoint x="60" y="320" as="sourcePoint" />
            <Array as="points">
              <mxPoint x="90" y="350" />
            </Array>
            <mxPoint x="65" y="350" as="targetPoint" />
            <mxPoint x="-115" y="105" as="offset" />
          </mxGeometry>
        </mxCell>
        <mxCell id="5Z3_2alg70xuiNiv1gRH-9" value="" style="html=1;points=[[0,0,0,0,5],[0,1,0,0,-5],[1,0,0,0,5],[1,1,0,0,-5]];perimeter=orthogonalPerimeter;outlineConnect=0;targetShapes=umlLifeline;portConstraint=eastwest;newEdgeStyle={&quot;curved&quot;:0,&quot;rounded&quot;:0};" vertex="1" parent="5Z3_2alg70xuiNiv1gRH-7">
          <mxGeometry x="50" y="80" width="10" height="880" as="geometry" />
        </mxCell>
        <mxCell id="5Z3_2alg70xuiNiv1gRH-10" value="4. Envia query para Addresses-&amp;gt;address.city" style="html=1;verticalAlign=bottom;endArrow=block;curved=0;rounded=0;" edge="1" parent="1" target="5Z3_2alg70xuiNiv1gRH-13">
          <mxGeometry relative="1" as="geometry">
            <mxPoint x="1210" y="490" as="sourcePoint" />
            <mxPoint x="1465" y="490" as="targetPoint" />
            <mxPoint as="offset" />
          </mxGeometry>
        </mxCell>
        <mxCell id="5Z3_2alg70xuiNiv1gRH-11" value="5. Retorna resultados (ou vazio)" style="html=1;verticalAlign=bottom;endArrow=open;dashed=1;endSize=8;curved=0;rounded=0;" edge="1" parent="1">
          <mxGeometry relative="1" as="geometry">
            <mxPoint x="1210" y="570" as="targetPoint" />
            <mxPoint x="1465" y="570" as="sourcePoint" />
            <mxPoint as="offset" />
          </mxGeometry>
        </mxCell>
        <mxCell id="5Z3_2alg70xuiNiv1gRH-12" value="Base de dados" style="shape=umlLifeline;perimeter=lifelinePerimeter;whiteSpace=wrap;html=1;container=1;dropTarget=0;collapsible=0;recursiveResize=0;outlineConnect=0;portConstraint=eastwest;newEdgeStyle={&quot;curved&quot;:0,&quot;rounded&quot;:0};" vertex="1" parent="1">
          <mxGeometry x="1415" y="90" width="100" height="960" as="geometry" />
        </mxCell>
        <mxCell id="5Z3_2alg70xuiNiv1gRH-13" value="" style="html=1;points=[[0,0,0,0,5],[0,1,0,0,-5],[1,0,0,0,5],[1,1,0,0,-5]];perimeter=orthogonalPerimeter;outlineConnect=0;targetShapes=umlLifeline;portConstraint=eastwest;newEdgeStyle={&quot;curved&quot;:0,&quot;rounded&quot;:0};" vertex="1" parent="5Z3_2alg70xuiNiv1gRH-12">
          <mxGeometry x="45" y="400" width="10" height="80" as="geometry" />
        </mxCell>
        <mxCell id="5Z3_2alg70xuiNiv1gRH-14" value="" style="html=1;points=[[0,0,0,0,5],[0,1,0,0,-5],[1,0,0,0,5],[1,1,0,0,-5]];perimeter=orthogonalPerimeter;outlineConnect=0;targetShapes=umlLifeline;portConstraint=eastwest;newEdgeStyle={&quot;curved&quot;:0,&quot;rounded&quot;:0};" vertex="1" parent="5Z3_2alg70xuiNiv1gRH-12">
          <mxGeometry x="45" y="760" width="10" height="80" as="geometry" />
        </mxCell>
        <mxCell id="5Z3_2alg70xuiNiv1gRH-15" value="&lt;h3 style=&quot;&quot;&gt;&lt;br&gt;&lt;/h3&gt;&lt;h3 style=&quot;&quot;&gt;Fluxo Principal: Pesquisa com resultados na tabela &quot;Addresses&quot;&lt;/h3&gt;&lt;ol&gt;&lt;li style=&quot;&quot;&gt;&lt;strong&gt;Utilizador (U)&lt;/strong&gt;&amp;nbsp;escreve no campo de pesquisa.&lt;/li&gt;&lt;li&gt;&lt;strong&gt;Sistema de Pesquisa (SP)&lt;/strong&gt;&amp;nbsp;não realiza a pesquisa e não apresentar sugestões.&lt;/li&gt;&lt;li&gt;&lt;strong&gt;SP&lt;/strong&gt; prepara uma query para pesquisar na tabela &quot;Addresses&quot;.&lt;/li&gt;&lt;li&gt;&lt;strong&gt;SP&lt;/strong&gt; envia a query para a tabela Addresses, especificamente na coluna &quot;city&quot;.&lt;/li&gt;&lt;li&gt;&lt;strong&gt;DB&lt;/strong&gt;&amp;nbsp;retorna os resultados.&lt;/li&gt;&lt;li&gt;&lt;strong&gt;SP&lt;/strong&gt;&amp;nbsp;apresenta resultados da tabela addresses.&lt;/li&gt;&lt;/ol&gt;&lt;h3 style=&quot;&quot;&gt;Fluxo Secundário: Pesquisa e não há resultados na tabela &quot;Addresses&quot;&lt;/h3&gt;&lt;ol&gt;&lt;li&gt;&lt;strong&gt;Utilizador (U)&lt;/strong&gt; digita no campo de pesquisa.&lt;/li&gt;&lt;li&gt;&lt;strong&gt;SP&lt;/strong&gt;&amp;nbsp;não realiza a pesquisa e retorna ao&amp;nbsp;Utilizador&amp;nbsp;sem apresentar sugestões&lt;/li&gt;&lt;li&gt;&lt;strong style=&quot;background-color: initial;&quot;&gt;SP&lt;/strong&gt;&lt;span style=&quot;background-color: initial;&quot;&gt; prepara uma query para pesquisar na tabela&lt;/span&gt;&amp;nbsp;&quot;Addresses&quot;.&lt;/li&gt;&lt;li&gt;&lt;strong&gt;SP&lt;/strong&gt; envia a query para a tabela Addresses, especificamente na coluna &quot;city&quot;.&lt;/li&gt;&lt;li&gt;&lt;strong&gt;DB&lt;/strong&gt;&amp;nbsp;retorna vazio (nenhum resultado).&lt;/li&gt;&lt;li&gt;&lt;strong&gt;SP&lt;/strong&gt; verifica que não há resultados na tabela addresses.&lt;/li&gt;&lt;li&gt;&lt;strong&gt;SP&lt;/strong&gt; prepara uma query para pesquisar na tabela Campos.&lt;/li&gt;&lt;li&gt;&lt;strong&gt;SP&lt;/strong&gt; envia a query para a tabela &lt;b&gt;&quot;&lt;/b&gt;Campos&quot;, especificamente na coluna &quot;nome&quot;.&lt;/li&gt;&lt;li&gt;&lt;strong&gt;DB&lt;/strong&gt;&amp;nbsp;retorna os resultados.&lt;/li&gt;&lt;li&gt;&lt;strong&gt;SP&lt;/strong&gt; apresenta resultados da tabela &quot;Campos&quot;.&lt;/li&gt;&lt;/ol&gt;" style="text;html=1;align=left;verticalAlign=middle;whiteSpace=wrap;rounded=0;fillColor=default;strokeColor=default;" vertex="1" parent="1">
          <mxGeometry x="60" y="650" width="560" height="400" as="geometry" />
        </mxCell>
        <mxCell id="5Z3_2alg70xuiNiv1gRH-16" value="[ Se há resultados na tabela addresses]" style="text;html=1;align=center;verticalAlign=middle;whiteSpace=wrap;rounded=0;fontStyle=1" vertex="1" parent="1">
          <mxGeometry x="680" y="610" width="240" height="30" as="geometry" />
        </mxCell>
        <mxCell id="5Z3_2alg70xuiNiv1gRH-17" value="6. Atualiza catálogo com campos por localização" style="html=1;verticalAlign=bottom;endArrow=open;dashed=1;endSize=8;curved=0;rounded=0;" edge="1" parent="1">
          <mxGeometry x="-0.001" relative="1" as="geometry">
            <mxPoint x="945" y="650" as="targetPoint" />
            <mxPoint x="1200" y="650" as="sourcePoint" />
            <mxPoint as="offset" />
          </mxGeometry>
        </mxCell>
        <mxCell id="5Z3_2alg70xuiNiv1gRH-18" value="[ Se &lt;span&gt;não&lt;/span&gt; há resultados na tabela addresses]" style="text;html=1;align=center;verticalAlign=middle;whiteSpace=wrap;rounded=0;fontStyle=1" vertex="1" parent="1">
          <mxGeometry x="680" y="710" width="260" height="30" as="geometry" />
        </mxCell>
        <mxCell id="5Z3_2alg70xuiNiv1gRH-19" value="7. Prepara query para pesquisar em Campos" style="html=1;align=left;spacingLeft=2;endArrow=block;rounded=0;edgeStyle=orthogonalEdgeStyle;curved=0;rounded=0;" edge="1" parent="1">
          <mxGeometry x="-1" y="115" relative="1" as="geometry">
            <mxPoint x="1210" y="770" as="sourcePoint" />
            <Array as="points">
              <mxPoint x="1240" y="800" />
            </Array>
            <mxPoint x="1215" y="800" as="targetPoint" />
            <mxPoint x="-115" y="105" as="offset" />
          </mxGeometry>
        </mxCell>
        <mxCell id="5Z3_2alg70xuiNiv1gRH-20" value="8. Envia query para Campos-&amp;gt;nome" style="html=1;verticalAlign=bottom;endArrow=block;curved=0;rounded=0;" edge="1" parent="1" target="5Z3_2alg70xuiNiv1gRH-14">
          <mxGeometry relative="1" as="geometry">
            <mxPoint x="1210" y="850" as="sourcePoint" />
            <mxPoint x="1460" y="850" as="targetPoint" />
            <mxPoint as="offset" />
          </mxGeometry>
        </mxCell>
        <mxCell id="5Z3_2alg70xuiNiv1gRH-21" value="9. Retorna resultados (ou vazio)" style="html=1;verticalAlign=bottom;endArrow=open;dashed=1;endSize=8;curved=0;rounded=0;" edge="1" parent="1">
          <mxGeometry relative="1" as="geometry">
            <mxPoint x="1210" y="930" as="targetPoint" />
            <mxPoint x="1465" y="930" as="sourcePoint" />
            <mxPoint as="offset" />
          </mxGeometry>
        </mxCell>
        <mxCell id="5Z3_2alg70xuiNiv1gRH-22" value="10. Retorna resultados (ou vazio)" style="html=1;verticalAlign=bottom;endArrow=open;dashed=1;endSize=8;curved=0;rounded=0;" edge="1" parent="1">
          <mxGeometry x="0.0022" relative="1" as="geometry">
            <mxPoint x="945" y="970" as="targetPoint" />
            <mxPoint x="1200" y="970" as="sourcePoint" />
            <mxPoint as="offset" />
          </mxGeometry>
        </mxCell>
        <mxCell id="5Z3_2alg70xuiNiv1gRH-23" value="&lt;span&gt;Diagrama de sequencia&lt;/span&gt;" style="shape=umlFrame;whiteSpace=wrap;html=1;pointerEvents=0;width=120;height=40;fillColor=#fff2cc;strokeColor=#000000;fontStyle=1" vertex="1" parent="1">
          <mxGeometry x="660" y="50" width="960" height="1000" as="geometry" />
        </mxCell>
        <mxCell id="5Z3_2alg70xuiNiv1gRH-24" value="&lt;b&gt;(U) &lt;/b&gt;User" style="shape=umlActor;verticalLabelPosition=bottom;verticalAlign=top;html=1;" vertex="1" parent="1">
          <mxGeometry x="80" y="485" width="30" height="60" as="geometry" />
        </mxCell>
        <mxCell id="5Z3_2alg70xuiNiv1gRH-25" value="(&lt;b&gt;SP&lt;/b&gt;) Sistema" style="shape=umlActor;verticalLabelPosition=bottom;verticalAlign=top;html=1;" vertex="1" parent="1">
          <mxGeometry x="80" y="325" width="30" height="60" as="geometry" />
        </mxCell>
        <mxCell id="5Z3_2alg70xuiNiv1gRH-26" value="&lt;b style=&quot;&quot;&gt;&lt;font style=&quot;font-size: 24px;&quot;&gt;Pesquisa Campo - Use Case&lt;/font&gt;&lt;/b&gt;" style="text;html=1;whiteSpace=wrap;overflow=hidden;rounded=0;align=center;fillColor=#fff2cc;strokeColor=#d6b656;" vertex="1" parent="1">
          <mxGeometry x="140" y="50" width="480.42" height="40" as="geometry" />
        </mxCell>
        <mxCell id="5Z3_2alg70xuiNiv1gRH-27" value="" style="swimlane;startSize=0;swimlaneFillColor=default;" vertex="1" parent="1">
          <mxGeometry x="140" y="130" width="480" height="480" as="geometry" />
        </mxCell>
        <mxCell id="5Z3_2alg70xuiNiv1gRH-28" value="Não mostrar nada" style="ellipse;whiteSpace=wrap;html=1;strokeColor=default;" vertex="1" parent="5Z3_2alg70xuiNiv1gRH-27">
          <mxGeometry x="290" y="190" width="140" height="70" as="geometry" />
        </mxCell>
        <mxCell id="5Z3_2alg70xuiNiv1gRH-29" value="Obter Sugestões de pesquisa" style="ellipse;whiteSpace=wrap;html=1;strokeColor=default;" vertex="1" parent="5Z3_2alg70xuiNiv1gRH-27">
          <mxGeometry x="90" y="190" width="140" height="70" as="geometry" />
        </mxCell>
        <mxCell id="5Z3_2alg70xuiNiv1gRH-30" value="Mostrar Pesquisa" style="ellipse;whiteSpace=wrap;html=1;" vertex="1" parent="5Z3_2alg70xuiNiv1gRH-27">
          <mxGeometry x="90" y="50" width="140" height="70" as="geometry" />
        </mxCell>
        <mxCell id="5Z3_2alg70xuiNiv1gRH-31" value="" style="edgeStyle=orthogonalEdgeStyle;rounded=0;orthogonalLoop=1;jettySize=auto;html=1;" edge="1" parent="5Z3_2alg70xuiNiv1gRH-27" source="5Z3_2alg70xuiNiv1gRH-29" target="5Z3_2alg70xuiNiv1gRH-30">
          <mxGeometry relative="1" as="geometry" />
        </mxCell>
        <mxCell id="5Z3_2alg70xuiNiv1gRH-32" value="include" style="edgeLabel;html=1;align=center;verticalAlign=middle;resizable=0;points=[];" connectable="0" vertex="1" parent="5Z3_2alg70xuiNiv1gRH-31">
          <mxGeometry x="0.0302" relative="1" as="geometry">
            <mxPoint as="offset" />
          </mxGeometry>
        </mxCell>
        <mxCell id="5Z3_2alg70xuiNiv1gRH-33" value="Pesquisar &lt;br&gt;Campo de Padel" style="ellipse;whiteSpace=wrap;html=1;" vertex="1" parent="5Z3_2alg70xuiNiv1gRH-27">
          <mxGeometry x="90" y="350" width="140" height="70" as="geometry" />
        </mxCell>
        <mxCell id="5Z3_2alg70xuiNiv1gRH-34" value="" style="edgeStyle=orthogonalEdgeStyle;rounded=0;orthogonalLoop=1;jettySize=auto;html=1;" edge="1" parent="5Z3_2alg70xuiNiv1gRH-27" source="5Z3_2alg70xuiNiv1gRH-33" target="5Z3_2alg70xuiNiv1gRH-29">
          <mxGeometry relative="1" as="geometry" />
        </mxCell>
        <mxCell id="5Z3_2alg70xuiNiv1gRH-35" value="include" style="edgeLabel;html=1;align=center;verticalAlign=middle;resizable=0;points=[];" connectable="0" vertex="1" parent="5Z3_2alg70xuiNiv1gRH-34">
          <mxGeometry x="0.1885" y="-1" relative="1" as="geometry">
            <mxPoint x="-1" y="13" as="offset" />
          </mxGeometry>
        </mxCell>
        <mxCell id="5Z3_2alg70xuiNiv1gRH-36" value="" style="edgeStyle=orthogonalEdgeStyle;rounded=0;orthogonalLoop=1;jettySize=auto;html=1;entryX=1;entryY=0.5;entryDx=0;entryDy=0;exitX=0;exitY=0.5;exitDx=0;exitDy=0;" edge="1" parent="5Z3_2alg70xuiNiv1gRH-27" source="5Z3_2alg70xuiNiv1gRH-28" target="5Z3_2alg70xuiNiv1gRH-29">
          <mxGeometry relative="1" as="geometry">
            <mxPoint x="285" y="225" as="sourcePoint" />
            <mxPoint x="240" y="110" as="targetPoint" />
          </mxGeometry>
        </mxCell>
        <mxCell id="5Z3_2alg70xuiNiv1gRH-37" value="extend" style="edgeLabel;html=1;align=center;verticalAlign=middle;resizable=0;points=[];" connectable="0" vertex="1" parent="5Z3_2alg70xuiNiv1gRH-36">
          <mxGeometry x="0.2577" y="-2" relative="1" as="geometry">
            <mxPoint x="11" y="2" as="offset" />
          </mxGeometry>
        </mxCell>
        <mxCell id="5Z3_2alg70xuiNiv1gRH-38" value="" style="endArrow=none;html=1;rounded=0;exitX=0.5;exitY=0.5;exitDx=0;exitDy=0;exitPerimeter=0;entryX=0;entryY=0.5;entryDx=0;entryDy=0;" edge="1" parent="1" source="5Z3_2alg70xuiNiv1gRH-25" target="5Z3_2alg70xuiNiv1gRH-29">
          <mxGeometry width="50" height="50" relative="1" as="geometry">
            <mxPoint x="130" y="354.5" as="sourcePoint" />
            <mxPoint x="245" y="354.5" as="targetPoint" />
          </mxGeometry>
        </mxCell>
        <mxCell id="5Z3_2alg70xuiNiv1gRH-39" value="" style="endArrow=none;html=1;rounded=0;exitX=0.5;exitY=0.5;exitDx=0;exitDy=0;exitPerimeter=0;" edge="1" parent="1" source="5Z3_2alg70xuiNiv1gRH-24">
          <mxGeometry width="50" height="50" relative="1" as="geometry">
            <mxPoint x="290" y="530" as="sourcePoint" />
            <mxPoint x="230" y="515" as="targetPoint" />
          </mxGeometry>
        </mxCell>
      </root>
    </mxGraphModel>
  </diagram>
</mxfile>
